<svg width="19" height="20" viewBox="0 0 19 20" fill="none" xmlns="http://www.w3.org/2000/svg">
<path d="M6.66699 15H2.66699C2.13656 15 1.62785 14.7893 1.25278 14.4142C0.877706 14.0391 0.666992 13.5304 0.666992 13V2C0.666992 1.46957 0.877706 0.960859 1.25278 0.585786C1.62785 0.210714 2.13656 0 2.66699 0L10.667 0C11.1974 0 11.7061 0.210714 12.0812 0.585786C12.4563 0.960859 12.667 1.46957 12.667 2V5H15.667L18.667 8V18C18.667 18.5304 18.4563 19.0391 18.0812 19.4142C17.7061 19.7893 17.1974 20 16.667 20H8.66699C8.13656 20 7.62785 19.7893 7.25278 19.4142C6.87771 19.0391 6.66699 18.5304 6.66699 18V15ZM6.66699 13V7C6.66699 6.46957 6.87771 5.96086 7.25278 5.58579C7.62785 5.21071 8.13656 5 8.66699 5H10.667V2H2.66699V13H6.66699ZM14.839 7H8.66699V18H16.667V8.828L14.839 7Z" fill="#21272A"/>
</svg>
